HIERARCHY
ROOT Hips
{
 OFFSET 0.000000 0.000000 0.000000
 CHANNELS 6 Xposition Yposition Zposition Yrotation Xrotation Zrotation
 JOINT Chest
 {
  OFFSET 0.000000 14.374500 -0.011500
  CHANNELS 3 Yrotation Xrotation Zrotation
  JOINT Chest2
  {
   OFFSET 0.000000 9.203400 0.023400
   CHANNELS 3 Yrotation Xrotation Zrotation
   JOINT Chest3
   {
    OFFSET 0.000000 9.162700 0.000000
    CHANNELS 3 Yrotation Xrotation Zrotation
    JOINT Chest4
    {
     OFFSET 0.000000 9.153300 0.000000
     CHANNELS 3 Yrotation Xrotation Zrotation
     JOINT Neck
     {
      OFFSET 0.000000 13.353600 0.000000
      CHANNELS 3 Yrotation Xrotation Zrotation
      JOINT Head
      {
       OFFSET 0.000000 8.573800 0.049400
       CHANNELS 3 Yrotation Xrotation Zrotation
       End Site
       {
        OFFSET 0.000000 16.219200 0.026100
       }
      }
     }
     JOINT RightCollar
     {
      OFFSET -2.497100 8.876100 0.000000
      CHANNELS 3 Yrotation Xrotation Zrotation
      JOINT RightShoulder
      {
       OFFSET -12.289200 0.000000 0.000000
       CHANNELS 3 Yrotation Xrotation Zrotation
       JOINT RightElbow
       {
        OFFSET 0.000000 -28.194900 0.000000
        CHANNELS 3 Yrotation Xrotation Zrotation
        JOINT RightWrist
        {
         OFFSET 0.000000 -23.009700 0.007900
         CHANNELS 3 Yrotation Xrotation Zrotation
         End Site
         {
          OFFSET 0.000000 -17.151500 0.000000
         }
        }
       }
      }
     }
     JOINT LeftCollar
     {
      OFFSET 2.497100 8.876100 0.000000
      CHANNELS 3 Yrotation Xrotation Zrotation
      JOINT LeftShoulder
      {
       OFFSET 12.289200 0.000000 0.000000
       CHANNELS 3 Yrotation Xrotation Zrotation
       JOINT LeftElbow
       {
        OFFSET 0.000000 -28.194900 0.000000
        CHANNELS 3 Yrotation Xrotation Zrotation
        JOINT LeftWrist
        {
         OFFSET 0.000000 -23.009700 0.007900
         CHANNELS 3 Yrotation Xrotation Zrotation
         End Site
         {
          OFFSET 0.000000 -17.151500 0.000000
         }
        }
       }
      }
     }
    }
   }
  }
 }
 JOINT RightHip
 {
  OFFSET -11.777600 0.056700 0.005700
  CHANNELS 3 Yrotation Xrotation Zrotation
  JOINT RightKnee
  {
   OFFSET 0.000000 -39.966000 -0.004200
   CHANNELS 3 Yrotation Xrotation Zrotation
   JOINT RightAnkle
   {
    OFFSET 0.000000 -41.981900 0.027400
    CHANNELS 3 Yrotation Xrotation Zrotation
    JOINT RightToe
    {
     OFFSET 0.000000 -9.910600 16.950100
     CHANNELS 3 Yrotation Xrotation Zrotation
     End Site
     {
      OFFSET 0.000000 -1.461000 6.191600
     }
    }
   }
  }
 }
 JOINT LeftHip
 {
  OFFSET 11.777600 0.056700 0.005700
  CHANNELS 3 Yrotation Xrotation Zrotation
  JOINT LeftKnee
  {
   OFFSET 0.000000 -39.966000 -0.004200
   CHANNELS 3 Yrotation Xrotation Zrotation
   JOINT LeftAnkle
   {
    OFFSET 0.000000 -41.981900 0.027400
    CHANNELS 3 Yrotation Xrotation Zrotation
    JOINT LeftToe
    {
     OFFSET 0.000000 -9.910600 16.950100
     CHANNELS 3 Yrotation Xrotation Zrotation
     End Site
     {
      OFFSET 0.000000 -1.461000 6.191600
     }
    }
   }
  }
 }
}
MOTION
Frames: 12
Frame Time: 0.008333
0.000000 91.618700 0.000000 0.000000 -5.767877 0.000000 0.000000 11.653817 0.000000 0.000000 -5.885947 0.000000 0.000000 -0.000000 0.000000 0.000000 -0.000000 0.000000 0.000000 12.528835 0.000000 0.000000 0.711642 0.000000 0.000000 -0.000000 0.000000 0.000000 0.000000 -90.000000 0.000000 -2.309062 0.000000 0.000000 2.309062 0.000000 0.000000 -0.000000 0.000000 0.000000 -0.000000 90.000000 0.000000 -2.309062 0.000000 0.000000 2.309062 0.000000 0.000000 8.520406 0.000000 0.000000 1.905762 0.000000 -0.000000 -4.658285 0.000000 0.000000 -0.000000 0.000000 0.000000 8.520406 0.000000 0.000000 1.905762 0.000000 -0.000000 -4.658285 0.000000 0.000000 -0.000000 0.000000
-1.598798 152.737336 76.648706 176.242967 -46.855494 -2.772431 4.623559 27.805174 3.294790 0.652646 5.009736 0.477832 1.047924 7.861667 0.784190 3.417655 22.463443 2.731066 -0.814776 11.000476 -0.765475 -0.679737 -14.061666 -0.618535 0.192259 -4.047958 0.037963 4.862900 -14.201805 -10.049198 26.474409 -67.154774 -10.567152 19.659063 32.266072 -12.876800 -11.361335 -8.223734 -1.022662 -5.057030 -14.776746 11.050370 -31.500431 -61.397434 6.884187 -14.362948 9.550183 17.354470 7.630121 -30.676156 0.706018 -76.435501 84.466902 -79.801928 1.340701 -25.113897 9.709741 0.112201 -0.317586 0.066380 -0.367246 -26.672136 -3.883450 146.007243 71.347235 157.078069 -0.794746 -5.252355 -8.625482 0.179989 -6.614731 -0.677505
-2.455820 145.677982 78.107225 176.397557 -46.836474 -3.009315 4.577459 27.754121 3.435348 0.653779 5.026197 0.475710 1.043889 7.818148 0.790314 3.414890 22.432836 2.738117 -0.824513 10.983120 -0.856928 -0.668907 -14.098294 -0.710363 0.187352 -3.969195 0.046291 4.855590 -14.236646 -10.048693 26.392078 -67.155099 -10.492207 19.660533 32.264314 -12.863743 -11.355848 -8.159911 -1.010512 -5.049865 -14.770962 11.006196 -31.499681 -61.380566 6.900331 -14.307872 9.513117 17.369844 7.452091 -30.728828 0.855235 -76.749917 84.470762 -80.120018 1.370361 -25.232707 9.723679 0.064022 -0.215052 0.037429 -0.541311 -26.663043 -3.741630 145.960967 71.384196 157.029959 -0.737877 -5.176106 -8.590246 0.082634 0.106971 0.048307
-3.163348 139.863664 79.309949 176.524511 -46.821074 -3.197201 4.532449 27.701149 3.545969 0.653345 5.016455 0.473966 1.040509 7.813661 0.794472 3.409965 22.423159 2.742648 -0.829836 10.950734 -0.947009 -0.654374 -14.131825 -0.804030 0.191252 -3.911527 0.038730 4.837436 -14.278999 -10.030128 26.331384 -67.144393 -10.431205 19.647048 32.253582 -12.862667 -11.348585 -8.117205 -1.016894 -5.044707 -14.789707 10.985738 -31.445290 -61.342590 6.858073 -14.272838 9.471895 17.376098 7.306474 -30.771761 0.973178 -77.024640 84.470317 -80.399490 1.387387 -25.332479 9.735155 0.031367 -0.126336 0.018334 -0.680419 -26.656184 -3.635860 145.930603 71.416743 157.004817 -0.700122 -5.109178 -8.577961 0.046156 0.067975 0.026991
-3.676101 135.664215 80.179981 176.613277 -46.814992 -3.323556 4.494257 27.652830 3.620203 0.653541 5.016913 0.474530 1.040076 7.831639 0.789969 3.404905 22.406142 2.747444 -0.832754 10.913658 -1.031884 -0.636405 -14.159117 -0.896917 0.187420 -3.881026 0.059855 4.809458 -14.345914 -10.022240 26.278123 -67.100952 -10.347127 19.630264 32.236505 -12.865936 -11.343123 -8.099062 -1.011752 -5.032825 -14.794560 10.948082 -31.341362 -61.290892 6.785884 -14.259913 9.399662 17.378478 7.204879 -30.797359 1.054935 -77.248770 84.469499 -80.633145 1.393915 -25.408477 9.747401 0.010596 -0.059257 0.006194 -0.773906 -26.646955 -3.566343 145.912576 71.440549 156.990649 -0.687404 -5.058365 -8.562774 0.026093 0.042886 0.015260
-4.001472 133.012567 80.730393 176.667988 -46.822631 -3.395827 4.466165 27.629559 3.659829 0.651545 5.011068 0.476026 1.041815 7.846910 0.786793 3.404872 22.415323 2.746486 -0.836709 10.864891 -1.107540 -0.617313 -14.175618 -0.988238 0.184463 -3.884853 0.085076 4.789449 -14.381664 -10.024218 26.191473 -67.080167 -10.247599 19.613087 32.215156 -12.872363 -11.345476 -8.106358 -0.996794 -5.005990 -14.801276 10.909284 -31.273096 -61.256612 6.712716 -14.219274 9.342460 17.400441 7.145576 -30.801464 1.104104 -77.441047 84.462380 -80.832442 1.395293 -25.459863 9.752413 0.002309 -0.019299 0.001350 -0.830159 -26.630784 -3.539711 145.879920 71.452566 156.959481 -0.672530 -5.013879 -8.555548 0.010551 0.018575 0.006170
-4.182310 131.557976 81.031309 176.683570 -46.857802 -3.416262 4.452892 27.634145 3.674617 0.646678 4.982827 0.481126 1.034395 7.829907 0.790606 3.405071 22.450055 2.741614 -0.837295 10.861274 -1.192661 -0.597473 -14.179038 -1.079708 0.185604 -3.857463 0.103451 4.778349 -14.403542 -10.035123 26.078791 -67.071456 -10.132545 19.594939 32.190893 -12.883098 -11.342920 -8.087512 -0.997073 -4.973691 -14.806813 10.868677 -31.179412 -61.220842 6.611868 -14.169190 9.278470 17.431665 7.129857 -30.771823 1.126992 -77.523105 84.460263 -80.916818 1.394628 -25.474414 9.751402 0.002751 -0.011827 0.001608 -0.845826 -26.594378 -3.541656 145.857735 71.453982 156.936682 -0.666008 -4.990882 -8.556238 0.007842 0.006442 0.004585
-4.268452 130.864028 81.178091 176.687991 -46.878033 -3.423597 4.441545 27.624541 3.681796 0.645139 4.980301 0.481644 1.031914 7.826206 0.791409 3.402074 22.441818 2.744386 -0.835534 10.887151 -1.243743 -0.569622 -14.184774 -1.208280 0.188922 -3.826358 0.122361 4.761582 -14.425888 -10.045975 26.036667 -67.048224 -10.069810 19.585050 32.178278 -12.890207 -11.338983 -8.070076 -1.000889 -4.941195 -14.806837 10.821705 -31.069142 -61.179701 6.494482 -14.111942 9.202362 17.471785 7.126868 -30.756782 1.139201 -77.616305 84.452078 -81.010417 1.400369 -25.486596 9.751946 0.003805 -0.007647 0.002225 -0.854541 -26.576437 -3.550524 145.845924 71.450854 156.922105 -0.654225 -4.976314 -8.559152 0.005825 0.001400 0.003406
-4.303919 130.579044 81.241617 176.689295 -46.891636 -3.425165 4.430766 27.609690 3.683867 0.642901 4.977374 0.482957 1.035114 7.840567 0.788319 3.390400 22.420079 2.750718 -0.831614 10.896903 -1.351138 -0.547657 -14.157155 -1.283784 0.196126 -3.797640 0.130987 4.739624 -14.454035 -10.044911 25.862340 -67.045534 -9.896219 19.558247 32.151952 -12.908108 -11.328350 -8.061471 -1.007043 -4.909776 -14.815553 10.753315 -30.952753 -61.114402 6.368527 -14.052785 9.114946 17.524540 7.127737 -30.747426 1.145856 -77.695976 84.448849 -81.088325 1.386559 -25.492978 9.754033 0.000837 -0.004074 0.000489 -0.860085 -26.566876 -3.561685 145.841608 71.446970 156.914377 -0.643656 -4.961154 -8.558399 0.006577 0.002135 0.003846
-4.316861 130.479201 81.266912 176.689246 -46.904374 -3.422620 4.425385 27.608610 3.682039 0.644179 4.983654 0.482241 1.031890 7.830790 0.790273 3.381264 22.398094 2.756504 -0.825295 10.918117 -1.460508 -0.522837 -14.120051 -1.361269 0.207415 -3.770158 0.134961 4.712061 -14.484532 -10.034793 25.668012 -67.038810 -9.705400 19.526923 32.128025 -12.919722 -11.317859 -8.039044 -1.020519 -4.903770 -14.825435 10.717542 -30.754672 -61.063770 6.181447 -13.996203 9.018149 17.588520 7.129765 -30.736867 1.146824 -77.720174 84.453504 -81.116801 1.376451 -25.496612 9.759057 -0.002233 -0.000585 -0.001306 -0.866772 -26.559963 -3.583506 145.807909 71.434029 156.873054 -0.633546 -4.948415 -8.555347 0.001092 0.003265 0.000638
-4.320228 130.450312 81.276838 176.690046 -46.921094 -3.423499 4.421781 27.611746 3.683456 0.638913 4.965732 0.484335 1.029045 7.824827 0.790802 3.368042 22.356524 2.764050 -0.807678 10.993308 -1.562589 -0.490837 -14.077709 -1.461145 0.223828 -3.708097 0.134061 4.695138 -14.510921 -10.022835 25.606178 -67.005399 -9.631819 19.447799 32.103965 -12.929636 -11.299356 -7.979206 -1.046955 -4.903498 -14.846609 10.675084 -30.510647 -60.997093 5.958160 -13.942806 8.912067 17.656659 7.135488 -30.724778 1.149735 -77.770526 84.457304 -81.165207 1.369210 -25.496110 9.761374 -0.002656 -0.000363 -0.001553 -0.870324 -26.544887 -3.590999 145.813724 71.434257 156.874965 -0.626416 -4.941365 -8.554158 0.000743 0.003338 0.000434
-4.320737 130.445632 81.279920 176.685256 -46.949277 -3.420025 4.419450 27.610289 3.685930 0.637839 4.961713 0.485059 1.019588 7.780731 0.798332 3.367454 22.376528 2.764148 -0.792690 11.054341 -1.661599 -0.453803 -14.027309 -1.565458 0.231898 -3.665608 0.132018 4.685096 -14.540296 -10.003944 25.535329 -66.968560 -9.557882 19.363954 32.080159 -12.932429 -11.294173 -7.962738 -1.053373 -4.899494 -14.845502 10.627336 -30.222421 -60.931387 5.693128 -13.883984 8.796153 17.731330 7.152707 -30.701007 1.148013 -77.846684 84.459446 -81.232476 1.364630 -25.495020 9.764790 -0.004122 -0.001072 -0.002410 -0.867833 -26.517258 -3.595291 145.802919 71.436379 156.861646 -0.625173 -4.928119 -8.554109 0.002591 -0.000167 0.001515
